<svg xmlns="http://www.w3.org/2000/svg" viewBox="0 0 24 8" fill="#E50914">
  <path d="M0 0v8h2.051v-2.82c0-.676.082-1.342.244-1.998.293-.879.764-1.651 1.438-2.259.5-.48 1.088-.862 1.728-1.125.676-.293 1.381-.44 2.107-.44h.99V0h-.99c-.726 0-1.431.147-2.107.44-.64.263-1.228.645-1.728 1.125-.674.608-1.145 1.38-1.438 2.259-.162.656-.244 1.322-.244 1.998V0zm4.814 0v8h2.051v-2.82c0-.676.082-1.342.244-1.998.293-.879.764-1.651 1.438-2.259.5-.48 1.088-.862 1.728-1.125.676-.293 1.381-.44 2.107-.44h.99V0h-.99c-.726 0-1.431.147-2.107.44-.64.263-1.228.645-1.728 1.125-.674.608-1.145 1.38-1.438 2.259-.162.656-.244 1.322-.244 1.998V0zm4.814 0v8h2.051v-2.82c0-.676.082-1.342.244-1.998.293-.879.764-1.651 1.438-2.259.5-.48 1.088-.862 1.728-1.125.676-.293 1.381-.44 2.107-.44h.99V0h-.99c-.726 0-1.431.147-2.107.44-.64.263-1.228.645-1.728 1.125-.674.608-1.145 1.38-1.438 2.259-.162.656-.244 1.322-.244 1.998V0zm4.814 0v8h2.051v-2.82c0-.676.082-1.342.244-1.998.293-.879.764-1.651 1.438-2.259.5-.48 1.088-.862 1.728-1.125.676-.293 1.381-.44 2.107-.44h.99V0h-.99c-.726 0-1.431.147-2.107.44-.64.263-1.228.645-1.728 1.125-.674.608-1.145 1.38-1.438 2.259-.162.656-.244 1.322-.244 1.998V0z"/>
</svg>
