<svg xmlns="http://www.w3.org/2000/svg" viewBox="0 0 24 24" fill="#E50914">
  <path d="M5.398 0v.006c0 .676-.082 1.342-.244 1.998A6.449 6.449 0 0 1 3.716 4.93c-.5.48-1.088.862-1.728 1.125a5.543 5.543 0 0 1-1.998.244H0v-2.688h.99c.402 0 .795-.082 1.168-.244A3.046 3.046 0 0 0 3.406 2.82c.293-.293.525-.637.697-1.031a3.24 3.24 0 0 0 .244-1.219V0h2.051zm4.814 0v.006c0 .676-.082 1.342-.244 1.998a6.449 6.449 0 0 1-1.438 2.926c-.5.48-1.088.862-1.728 1.125a5.543 5.543 0 0 1-1.998.244h-.99V4.111h.99c.402 0 .795-.082 1.168-.244A3.046 3.046 0 0 0 8.22 2.82c.293-.293.525-.637.697-1.031a3.24 3.24 0 0 0 .244-1.219V0h2.051zm4.814 0v.006c0 .676-.082 1.342-.244 1.998a6.449 6.449 0 0 1-1.438 2.926c-.5.48-1.088.862-1.728 1.125a5.543 5.543 0 0 1-1.998.244h-.99V4.111h.99c.402 0 .795-.082 1.168-.244A3.046 3.046 0 0 0 13.034 2.82c.293-.293.525-.637.697-1.031a3.24 3.24 0 0 0 .244-1.219V0h2.051zm4.814 0v.006c0 .676-.082 1.342-.244 1.998a6.449 6.449 0 0 1-1.438 2.926c-.5.48-1.088.862-1.728 1.125a5.543 5.543 0 0 1-1.998.244h-.99V4.111h.99c.402 0 .795-.082 1.168-.244A3.046 3.046 0 0 0 17.848 2.82c.293-.293.525-.637.697-1.031a3.24 3.24 0 0 0 .244-1.219V0h2.051z"/>
</svg>
